<svg xmlns="http://www.w3.org/2000/svg" width="596" height="607" fill="none" viewBox="0 0 596 607"><path fill="#816DFF" d="M182.285 279.285C167.768 264.768 167.768 241.232 182.285 226.715L340.715 68.2845C355.232 53.7679 378.768 53.7679 393.285 68.2845L551.715 226.715C566.232 241.232 566.232 264.768 551.715 279.285L393.285 437.715C378.768 452.232 355.232 452.232 340.715 437.715L182.285 279.285Z"/><path fill="#fff" d="M286.22 224.998C283.792 224.998 281.779 224.269 280.184 222.812C278.657 221.355 277.894 219.516 277.894 217.296C277.894 215.075 278.657 213.271 280.184 211.883C281.779 210.426 283.792 209.698 286.22 209.698C288.649 209.698 290.626 210.426 292.153 211.883C293.749 213.271 294.547 215.075 294.547 217.296C294.547 219.516 293.749 221.355 292.153 222.812C290.626 224.269 288.649 224.998 286.22 224.998ZM279.559 284.636V233.012H292.881V284.636H279.559Z"/><path fill="#fff" d="M306.787 284.636V233.012H318.548L319.589 241.755C321.185 238.702 323.475 236.273 326.458 234.469C329.511 232.665 333.085 231.763 337.179 231.763C343.562 231.763 348.524 233.775 352.062 237.8C355.601 241.824 357.371 247.722 357.371 255.494V284.636H344.048V256.743C344.048 252.302 343.146 248.902 341.342 246.543C339.538 244.183 336.728 243.004 332.911 243.004C329.165 243.004 326.077 244.322 323.648 246.959C321.289 249.596 320.109 253.273 320.109 257.992V284.636H306.787Z"/><path fill="#fff" d="M383.549 284.636L364.606 233.012H378.553L391.667 272.043L404.781 233.012H418.728L399.681 284.636H383.549Z"/><path fill="#fff" d="M451.252 284.636C445.839 284.636 441.503 283.318 438.241 280.681C434.98 278.045 433.349 273.361 433.349 266.63V244.149H424.503V233.012H433.349L434.911 219.169H446.672V233.012H460.619V244.149H446.672V266.734C446.672 269.232 447.192 270.967 448.233 271.938C449.343 272.841 451.217 273.292 453.854 273.292H460.307V284.636H451.252Z"/><path stroke="#fff" stroke-width="15" d="M558.09 226.983L394.017 62.9096C379.372 48.265 355.628 48.265 340.984 62.9096L176.91 226.983C162.266 241.628 162.266 265.372 176.91 280.016L340.984 444.09C355.628 458.734 379.372 458.734 394.017 444.09L558.09 280.016C572.735 265.371 572.735 241.628 558.09 226.983Z"/><path stroke="#fff" stroke-width="10" d="M329.274 490.497L241.777 403C237.872 399.095 231.54 399.095 227.635 403L140.138 490.497C136.232 494.403 136.232 500.734 140.138 504.64L227.635 592.137C231.54 596.042 237.872 596.042 241.777 592.137L329.274 504.64C333.18 500.734 333.18 494.403 329.274 490.497Z"/><path stroke="#fff" stroke-width="10" d="M284.263 53.4865L245.777 15.0001C241.872 11.0948 235.54 11.0948 231.635 15.0001L193.148 53.4865C189.243 57.3917 189.243 63.7234 193.148 67.6286L231.635 106.115C235.54 110.02 241.872 110.02 245.777 106.115L284.263 67.6286C288.169 63.7234 288.169 57.3917 284.263 53.4865Z"/><path stroke="#fff" stroke-width="10" d="M204.137 362.634L116.64 275.137C112.735 271.232 106.403 271.232 102.498 275.137L15.0005 362.634C11.0953 366.54 11.0953 372.871 15.0005 376.777L102.498 464.274C106.403 468.179 112.735 468.179 116.64 464.274L204.137 376.777C208.043 372.871 208.043 366.54 204.137 362.634Z"/><path stroke="#fff" stroke-width="10" d="M204.137 123.497L116.64 36.0001C112.735 32.0948 106.403 32.0948 102.498 36.0001L15.0005 123.497C11.0952 127.403 11.0952 133.734 15.0005 137.64L102.498 225.137C106.403 229.042 112.735 229.042 116.64 225.137L204.137 137.64C208.043 133.734 208.043 127.403 204.137 123.497Z"/></svg>